<svg width="368" height="368" viewBox="0 0 368 368" fill="none" xmlns="http://www.w3.org/2000/svg">
<mask id="mask0_6_5" style="mask-type:alpha" maskUnits="userSpaceOnUse" x="0" y="0" width="368" height="368">
<rect width="368" height="368" fill="url(#paint0_linear_6_5)"/>
</mask>
<g mask="url(#mask0_6_5)">
<circle cx="184" cy="184" r="285.813" fill="url(#paint1_linear_6_5)"/>
</g>
<path d="M158.23 272.52C159.13 272.7 159.94 273.06 160.66 273.6C161.38 274.14 161.92 274.77 162.28 275.49C162.82 276.21 163.18 277.11 163.36 278.19C163.18 279.09 162.19 280.17 160.39 281.43C158.77 282.87 156.79 284.22 154.45 285.48C152.29 286.92 150.13 288.18 147.97 289.26C145.81 290.52 144.19 291.42 143.11 291.96C142.57 292.32 141.67 292.5 140.41 292.5C136.99 292.5 133.84 292.23 130.96 291.69C130.96 291.69 131.05 291.51 131.23 291.15C130.87 291.15 130.6 291.33 130.42 291.69C128.8 291.51 127 291.06 125.02 290.34C125.02 290.34 125.02 290.25 125.02 290.07C125.02 289.89 124.93 289.8 124.75 289.8C124.75 289.98 124.75 290.16 124.75 290.34H125.02H124.48C124.48 290.34 124.57 290.16 124.75 289.8C124.75 289.8 124.66 289.98 124.48 290.34C121.78 289.44 119.26 288.45 116.92 287.37C114.58 286.47 112.24 285.3 109.9 283.86C110.62 283.14 110.98 283.05 110.98 283.59C110.98 284.13 111.25 284.31 111.79 284.13C112.15 284.13 112.24 284.31 112.06 284.67C111.88 285.03 111.97 284.76 112.33 283.86C112.51 284.22 112.51 284.49 112.33 284.67C112.33 285.03 112.51 284.85 112.87 284.13V283.59C112.87 283.05 112.69 283.14 112.33 283.86H112.06C112.06 283.86 111.97 283.95 111.79 284.13C112.15 283.41 112.15 283.05 111.79 283.05C111.43 283.23 111.43 283.14 111.79 282.78C111.61 282.6 111.16 282.51 110.44 282.51C110.44 281.61 109.9 281.34 108.82 281.7C108.46 282.42 108.46 282.69 108.82 282.51C109.36 282.33 109.63 282.51 109.63 283.05C109.99 283.05 110.08 283.32 109.9 283.86C109.9 283.86 109.72 283.77 109.36 283.59V284.13L109.63 283.86V284.13V284.4C109.81 284.4 109.9 284.4 109.9 284.4C109.9 284.58 109.99 284.67 110.17 284.67C110.17 284.67 110.26 284.76 110.44 284.94C110.62 285.12 110.89 285.21 111.25 285.21C111.43 285.39 111.52 285.48 111.52 285.48C111.7 285.48 111.88 285.57 112.06 285.75C112.06 285.75 112.15 285.93 112.33 286.29L112.87 286.83C112.87 287.01 112.87 287.1 112.87 287.1C113.05 287.1 113.14 287.19 113.14 287.37H113.41H113.68V287.1C114.04 287.28 114.31 287.37 114.49 287.37C114.67 287.37 114.85 287.46 115.03 287.64L115.3 287.37H115.57C115.75 287.55 115.93 287.64 116.11 287.64C116.29 287.82 116.56 287.91 116.92 287.91C117.28 288.27 117.46 288.54 117.46 288.72L117.73 288.99L118 289.26C118.18 289.26 118.27 289.26 118.27 289.26C118.27 289.44 118.36 289.53 118.54 289.53V289.8L118.81 290.07H119.35C119.71 290.07 119.89 290.25 119.89 290.61C119.89 290.43 119.8 290.34 119.62 290.34L120.16 290.88C120.16 290.7 120.07 290.61 119.89 290.61C120.07 290.61 120.25 290.7 120.43 290.88C120.61 290.88 120.79 290.97 120.97 291.15C121.51 291.15 121.87 291.24 122.05 291.42H122.86V291.69C123.04 291.51 123.22 291.51 123.4 291.69H123.67C123.85 291.69 124.03 291.78 124.21 291.96L124.75 292.23V292.5V292.77H124.48L124.75 293.04H125.02V293.31H125.56H126.1V293.04L125.83 292.77C125.83 292.77 125.92 292.86 126.1 293.04V292.77H126.37C126.37 292.77 126.46 292.68 126.64 292.5C126.64 292.86 126.82 293.04 127.18 293.04L127.45 293.31H127.99C127.99 293.31 128.08 293.31 128.26 293.31H128.53C128.53 293.49 128.62 293.58 128.8 293.58V293.85V294.12H128.53C127.99 294.12 127.63 294.21 127.45 294.39V294.66V294.93H127.18C127 294.93 126.82 294.84 126.64 294.66L126.37 294.39H126.1H126.37V294.12H125.29V294.39V294.66C125.29 295.02 125.11 295.2 124.75 295.2C124.03 294.84 123.4 294.57 122.86 294.39C122.14 294.03 121.69 293.76 121.51 293.58L121.78 293.31H122.05V293.04H122.32C122.32 293.04 122.41 293.13 122.59 293.31C122.59 293.31 122.77 293.49 123.13 293.85L123.4 293.58V293.31V293.04C123.4 292.86 123.31 292.77 123.13 292.77H122.32C122.14 292.95 121.69 292.95 120.97 292.77L121.24 292.5H120.7C119.98 292.32 119.44 292.41 119.08 292.77C119.44 292.77 119.71 292.86 119.89 293.04C120.07 293.04 120.16 293.13 120.16 293.31L119.89 293.58V293.85C119.89 293.85 119.71 293.76 119.35 293.58C118.99 293.58 118.81 293.67 118.81 293.85H118.54C118.54 293.67 118.63 293.49 118.81 293.31H118.54V293.04C118.54 292.86 118.45 292.77 118.27 292.77C117.91 292.41 117.64 292.23 117.46 292.23C117.1 291.87 116.74 291.6 116.38 291.42V291.15C116.02 290.97 115.66 291.06 115.3 291.42C115.3 291.42 115.21 291.51 115.03 291.69C114.85 291.69 114.76 291.6 114.76 291.42H114.49H114.22C114.22 291.42 114.04 291.42 113.68 291.42C113.32 291.42 113.32 291.24 113.68 290.88H113.41V291.15V291.42L113.14 291.15C113.14 290.97 113.23 290.79 113.41 290.61C113.41 290.61 113.59 290.43 113.95 290.07H114.22V289.8C114.04 289.8 113.95 289.71 113.95 289.53V288.99L113.41 289.8V289.53L113.95 288.99C113.77 288.99 113.68 288.81 113.68 288.45C113.5 288.45 113.23 288.63 112.87 288.99C112.51 289.71 112.33 290.25 112.33 290.61V290.88H112.06V291.15C111.88 291.15 111.79 290.97 111.79 290.61V290.34C111.79 290.16 111.7 290.07 111.52 290.07C111.34 289.89 111.16 289.8 110.98 289.8H110.44V289.53C110.44 289.35 110.26 289.26 109.9 289.26L110.17 288.99L110.44 288.72C110.44 288.72 110.53 288.63 110.71 288.45C110.35 288.09 109.72 288.09 108.82 288.45L110.17 288.72V288.99C109.99 289.17 109.72 289.17 109.36 288.99C109 288.99 108.82 289.08 108.82 289.26H108.55C108.55 289.26 108.46 289.08 108.28 288.72C108.1 288.54 107.92 288.45 107.74 288.45V288.18L108.01 287.91V288.18V287.91V287.64C108.01 287.46 108.1 287.37 108.28 287.37C108.82 287.37 109.18 287.28 109.36 287.1C109.72 287.1 109.99 287.01 110.17 286.83C110.35 286.83 110.62 286.83 110.98 286.83L110.71 286.56V286.29C110.35 286.29 109.81 286.38 109.09 286.56C108.55 286.74 108.1 286.92 107.74 287.1V287.37C107.38 287.19 107.38 286.92 107.74 286.56L108.28 286.02H107.2C106.66 286.02 106.39 286.02 106.39 286.02V286.29H106.12H105.85C105.85 286.11 105.76 286.02 105.58 286.02V285.75H105.31V285.48C105.31 285.3 105.4 285.12 105.58 284.94H104.77H104.5C104.5 284.94 104.59 284.85 104.77 284.67H105.04L105.31 284.4V284.13C105.13 284.13 104.95 284.22 104.77 284.4L104.5 284.67C104.32 284.49 104.23 284.31 104.23 284.13V283.32C104.23 283.5 104.14 283.68 103.96 283.86V284.13H103.69C103.51 284.13 103.42 284.04 103.42 283.86C103.42 283.86 103.33 283.86 103.15 283.86V283.59V283.32C103.15 283.14 102.88 283.05 102.34 283.05L103.69 282.51L103.15 283.32H103.42C103.6 283.32 103.69 283.23 103.69 283.05C103.69 283.05 103.78 283.05 103.96 283.05L104.5 282.51C104.5 282.51 104.59 282.33 104.77 281.97C104.77 282.15 104.68 282.24 104.5 282.24H103.42C103.24 282.42 102.97 282.51 102.61 282.51H102.07C102.25 282.51 102.34 282.42 102.34 282.24C102.34 282.24 102.43 282.15 102.61 281.97C102.25 282.15 101.89 282.06 101.53 281.7C101.35 281.52 101.17 281.25 100.99 280.89C100.63 280.53 100.45 280.35 100.45 280.35H100.72C100.54 280.17 100.45 279.99 100.45 279.81H99.91L100.18 279.54H99.64C99.28 279.54 99.1 279.45 99.1 279.27V279L99.37 278.73C99.19 278.73 99.01 278.64 98.83 278.46C98.83 278.46 98.74 278.46 98.56 278.46V278.73H98.29V278.46V278.19V277.92L97.21 277.38H97.48V277.11V276.84H97.75C98.11 277.2 98.29 277.38 98.29 277.38C98.47 277.38 98.65 277.47 98.83 277.65V277.92L99.37 277.38C99.01 277.02 98.29 276.84 97.21 276.84C97.03 276.66 96.85 276.57 96.67 276.57L96.13 275.49H95.86L96.4 275.22H96.13C96.13 275.04 96.04 274.95 95.86 274.95H96.13H95.86V274.68H96.13C96.31 274.5 96.49 274.41 96.67 274.41C96.49 274.23 96.22 274.14 95.86 274.14V274.41V274.95C95.86 274.77 95.77 274.68 95.59 274.68C95.59 274.68 95.59 274.59 95.59 274.41V274.68V273.87C95.05 273.69 94.6 273.51 94.24 273.33H93.97V273.06C94.15 273.06 94.24 272.97 94.24 272.79H93.97C93.79 272.61 93.7 272.34 93.7 271.98V271.44H93.43C93.25 271.26 93.07 271.26 92.89 271.44H92.62V271.17H92.08C92.08 271.17 92.17 271.08 92.35 270.9H92.62V270.63H92.35C91.99 270.45 91.63 270.18 91.27 269.82V269.28H91C91 269.28 90.91 269.37 90.73 269.55H90.46V269.28C90.64 269.1 90.73 268.83 90.73 268.47H90.46C90.1 268.47 89.83 268.38 89.65 268.2H89.92V267.93H90.19C90.19 267.75 90.1 267.66 89.92 267.66V267.12C89.74 267.12 89.65 266.94 89.65 266.58H89.38V267.39C89.2 267.39 89.11 267.48 89.11 267.66C88.93 267.66 88.84 267.75 88.84 267.93V267.66V267.12C88.48 266.94 88.48 266.67 88.84 266.31C88.84 266.31 88.93 266.22 89.11 266.04L88.84 265.77C88.66 265.77 88.57 265.68 88.57 265.5C88.57 265.5 88.66 265.32 88.84 264.96H89.11C88.93 264.78 88.66 264.69 88.3 264.69L88.03 263.88H87.76L88.03 263.61L87.49 263.34L87.76 263.07H87.49H87.76V262.8C87.58 262.62 87.31 262.53 86.95 262.53C86.77 262.53 86.59 262.44 86.41 262.26V261.99C86.41 261.99 86.5 261.9 86.68 261.72C86.32 261.9 85.96 261.72 85.6 261.18C85.24 260.64 84.97 260.37 84.79 260.37H84.52C84.7 260.19 84.88 260.1 85.06 260.1C85.06 259.92 85.15 259.92 85.33 260.1H85.6C85.6 260.1 85.69 260.01 85.87 259.83C85.51 259.47 85.24 259.29 85.06 259.29H84.79C84.79 259.11 84.88 259.02 85.06 259.02L85.33 258.75V258.48H85.06C85.06 258.3 84.97 258.21 84.79 258.21C84.79 258.21 84.7 258.3 84.52 258.48H84.25L84.52 257.67C84.16 257.67 83.98 257.49 83.98 257.13C83.8 256.95 83.71 256.77 83.71 256.59V255.78H83.44C83.26 255.78 83.08 255.69 82.9 255.51H83.44H83.17C83.17 255.33 82.99 255.06 82.63 254.7C82.63 254.7 82.45 254.52 82.09 254.16C82.09 253.98 82.18 253.89 82.36 253.89V253.62L81.82 252.81V252.54H82.09C82.27 252.72 82.45 252.81 82.63 252.81L82.36 252.54L82.09 252.27H82.36L81.82 251.73C81.82 251.91 81.73 252 81.55 252V251.73C81.55 251.55 81.46 251.46 81.28 251.46C81.28 251.46 81.28 251.37 81.28 251.19V250.65H81.55H81.82H82.09V250.92V250.65C82.09 250.47 82 250.38 81.82 250.38H81.55H81.28V249.84L80.74 249.3C80.92 249.3 81.01 249.21 81.01 249.03L80.74 248.76H81.01H81.28H81.55C81.37 248.58 81.19 248.49 81.01 248.49C81.01 248.49 80.92 248.4 80.74 248.22C80.56 248.22 80.47 248.13 80.47 247.95H80.74L81.01 247.68H80.47L80.2 247.41H79.93C79.93 247.41 79.84 247.32 79.66 247.14V246.6H79.39C79.21 246.24 79.3 245.88 79.66 245.52C79.66 244.98 79.66 244.71 79.66 244.71V244.44H79.39C79.21 244.62 79.21 244.8 79.39 244.98C79.39 244.98 79.3 245.07 79.12 245.25H78.85V244.98V244.44V243.9C78.85 243.9 78.76 243.81 78.58 243.63H78.85V243.36H79.12C78.94 243.36 78.85 243.18 78.85 242.82C78.67 242.82 78.58 242.73 78.58 242.55V242.28C78.58 242.28 78.4 242.19 78.04 242.01H78.31V241.74C78.13 241.74 78.04 241.65 78.04 241.47V241.2H78.31C78.31 241.2 78.22 241.11 78.04 240.93V240.66C78.04 240.66 77.95 240.57 77.77 240.39V240.12V239.85V239.58C77.77 239.4 77.68 239.22 77.5 239.04C77.5 238.86 77.5 238.68 77.5 238.5H77.23V238.23C77.23 238.05 77.14 237.96 76.96 237.96C76.96 237.78 76.96 237.51 76.96 237.15L76.69 236.88V236.61C76.51 236.25 76.42 235.89 76.42 235.53C76.42 235.17 76.33 234.81 76.15 234.45C75.97 234.45 75.88 234.36 75.88 234.18C75.88 233.64 75.7 233.01 75.34 232.29C75.34 232.47 75.52 232.56 75.88 232.56V232.29H75.34C75.16 231.93 75.07 231.66 75.07 231.48C75.07 231.12 74.98 230.76 74.8 230.4C74.8 230.22 74.71 230.04 74.53 229.86C74.53 229.32 74.44 228.96 74.26 228.78C74.26 228.42 74.17 228.24 73.99 228.24C73.99 228.06 73.99 227.79 73.99 227.43H73.72V227.16C73.54 227.16 73.45 226.98 73.45 226.62V226.08H73.72C73.54 225.9 73.45 225.72 73.45 225.54V225.27C71.83 219.15 70.57 213.21 69.67 207.45C68.77 201.51 68.05 196.02 67.51 190.98C64.45 201.6 61.48 211.95 58.6 222.03C55.9 232.11 53.47 241.29 51.31 249.57C49.33 257.85 47.71 264.87 46.45 270.63C45.37 276.57 44.83 280.62 44.83 282.78C44.65 285.66 44.38 288.18 44.02 290.34C43.66 292.32 43.12 293.94 42.4 295.2C41.86 296.64 41.05 297.18 39.97 296.82C38.53 296.28 36.46 295.02 33.76 293.04C31.24 291.06 28.81 288.27 26.47 284.67C24.31 281.25 22.69 277.02 21.61 271.98C20.53 267.12 20.71 261.45 22.15 254.97C23.23 250.65 24.76 244.71 26.74 237.15C28.9 229.59 31.24 221.31 33.76 212.31C36.46 203.13 39.25 193.68 42.13 183.96C45.01 174.06 47.8 164.7 50.5 155.88C53.2 146.88 55.63 138.78 57.79 131.58C59.95 124.38 61.66 118.8 62.92 114.84C66.7 103.14 69.76 92.07 72.1 81.63C74.62 71.19 75.79 63.09 75.61 57.33C75.61 56.07 75.7 54.99 75.88 54.09C76.24 52.29 77.41 51.48 79.39 51.66C80.65 52.02 82.72 52.83 85.6 54.09C88.48 55.35 91.18 57.33 93.7 60.03C96.22 62.55 98.11 65.97 99.37 70.29C100.81 74.43 100.63 79.56 98.83 85.68C98.47 86.76 98.02 88.11 97.48 89.73C96.94 91.35 96.4 93.24 95.86 95.4C99.46 88.2 103.33 81.09 107.47 74.07C111.61 66.87 115.75 60.57 119.89 55.17C124.21 49.77 128.26 45.63 132.04 42.75C136 39.87 139.6 39.06 142.84 40.32C148.42 42.66 153.73 45.99 158.77 50.31C163.99 54.63 168.31 59.94 171.73 66.24C175.33 72.54 177.76 79.92 179.02 88.38C180.28 96.84 179.92 106.29 177.94 116.73C176.5 123.75 173.62 130.68 169.3 137.52C165.16 144.18 160.21 150.3 154.45 155.88C148.69 161.46 142.39 166.32 135.55 170.46C128.89 174.6 122.41 177.66 116.11 179.64C113.77 180.54 111.43 181.35 109.09 182.07C107.11 182.79 104.77 183.51 102.07 184.23C99.37 184.95 96.76 185.49 94.24 185.85C93.34 186.03 92.35 186.21 91.27 186.39C90.37 186.39 89.38 186.48 88.3 186.66C90.64 202.86 93.88 216.27 98.02 226.89C102.16 237.33 106.75 245.7 111.79 252C116.83 258.3 121.96 262.89 127.18 265.77C132.4 268.83 137.17 270.81 141.49 271.71C145.99 272.61 149.77 272.97 152.83 272.79C155.89 272.61 157.69 272.52 158.23 272.52ZM100.18 265.23C99.28 265.05 98.74 264.78 98.56 264.42C98.38 264.06 97.84 263.79 96.94 263.61C97.3 262.89 97.57 262.44 97.75 262.26C97.39 262.44 97.12 262.53 96.94 262.53C96.76 262.53 96.49 262.62 96.13 262.8C96.31 262.98 96.49 263.25 96.67 263.61C96.85 263.97 97.03 264.24 97.21 264.42L96.94 264.69C97.48 264.69 97.84 264.87 98.02 265.23C98.38 265.77 98.92 266.13 99.64 266.31C99.46 266.67 99.37 266.85 99.37 266.85C99.55 266.85 99.55 267.03 99.37 267.39C99.73 267.75 100.09 267.93 100.45 267.93C100.99 268.11 101.35 268.56 101.53 269.28C101.53 269.64 101.62 269.64 101.8 269.28C101.98 269.1 102.16 269.19 102.34 269.55C102.16 269.73 102.16 269.91 102.34 270.09C102.88 270.45 103.15 270.72 103.15 270.9C103.15 271.08 103.42 271.26 103.96 271.44C103.96 271.62 104.23 271.8 104.77 271.98C105.13 272.34 105.31 272.52 105.31 272.52C105.67 272.52 105.85 272.61 105.85 272.79C106.03 273.15 106.3 273.06 106.66 272.52C106.84 272.16 106.75 271.89 106.39 271.71C106.03 271.53 105.76 271.53 105.58 271.71C105.58 271.17 105.22 270.54 104.5 269.82C103.78 269.46 103.42 269.1 103.42 268.74C102.7 268.92 102.34 268.56 102.34 267.66C101.98 267.48 101.62 267.3 101.26 267.12C101.08 267.12 101.17 266.76 101.53 266.04C100.81 266.4 100.45 266.4 100.45 266.04C100.63 265.68 100.54 265.41 100.18 265.23ZM106.93 278.46C106.57 278.82 106.39 278.91 106.39 278.73L106.93 278.46ZM106.66 276.84C106.66 277.02 106.75 277.02 106.93 276.84C107.11 276.84 107.2 276.75 107.2 276.57C107.2 276.57 107.02 276.66 106.66 276.84ZM107.2 280.35C106.84 280.17 106.57 279.9 106.39 279.54C106.21 279.18 105.94 279.09 105.58 279.27C105.58 279.27 105.58 279.45 105.58 279.81C105.76 279.81 105.94 279.99 106.12 280.35C106.3 280.89 106.66 280.89 107.2 280.35ZM105.31 274.41C105.31 274.41 105.22 274.5 105.04 274.68C105.04 274.86 105.04 274.86 105.04 274.68C105.22 274.68 105.31 274.59 105.31 274.41ZM105.04 277.38C104.68 277.56 104.5 277.65 104.5 277.65C104.86 277.47 105.04 277.38 105.04 277.38ZM102.61 277.38C102.61 277.56 102.7 277.56 102.88 277.38C103.06 277.38 103.15 277.29 103.15 277.11C103.15 277.11 102.97 277.2 102.61 277.38ZM103.69 278.19C103.69 278.01 103.6 277.92 103.42 277.92C103.24 278.1 103.15 278.19 103.15 278.19C103.33 278.37 103.51 278.37 103.69 278.19ZM100.99 273.06C100.99 272.88 100.81 272.97 100.45 273.33H100.72C100.72 273.33 100.81 273.24 100.99 273.06ZM99.1 272.25C98.92 272.43 98.83 272.43 98.83 272.25H99.1ZM98.56 269.28C98.56 269.1 98.47 269.1 98.29 269.28C98.29 269.46 98.38 269.46 98.56 269.28ZM97.75 267.93C97.75 267.75 97.66 267.75 97.48 267.93H97.75ZM96.67 260.37C96.31 260.55 96.13 260.64 96.13 260.64C96.49 260.46 96.67 260.37 96.67 260.37ZM96.4 260.1C96.4 260.28 96.31 260.37 96.13 260.37C96.31 260.19 96.4 260.1 96.4 260.1ZM96.13 260.1C96.31 259.92 96.31 259.83 96.13 259.83C95.95 259.83 95.86 259.92 95.86 260.1H96.13ZM95.05 257.4V257.67H94.78C94.42 257.85 94.33 257.85 94.51 257.67C94.69 257.67 94.87 257.58 95.05 257.4ZM93.16 256.32C93.16 256.14 93.07 256.14 92.89 256.32H93.16ZM89.65 249.84C89.47 249.84 89.2 249.66 88.84 249.3C87.94 249.66 87.58 249.93 87.76 250.11C88.12 250.29 88.3 250.65 88.3 251.19C88.48 251.55 88.84 251.82 89.38 252C89.2 252.18 89.02 252.27 88.84 252.27C88.66 252.45 88.75 252.54 89.11 252.54C89.11 252.54 89.11 252.72 89.11 253.08L88.84 253.35C88.66 253.71 88.66 253.8 88.84 253.62C89.2 253.62 89.47 253.71 89.65 253.89C89.65 254.43 90.01 254.7 90.73 254.7C90.73 255.06 90.55 255.33 90.19 255.51C90.37 255.87 90.46 255.87 90.46 255.51C90.64 255.15 90.82 255.06 91 255.24C90.82 255.6 90.82 255.78 91 255.78C91.36 255.96 91.36 256.14 91 256.32C91.36 256.32 91.54 256.41 91.54 256.59C91.36 256.59 91.09 256.77 90.73 257.13C90.91 257.49 91.18 257.58 91.54 257.4C92.08 257.22 92.44 257.31 92.62 257.67C91.72 258.39 91.63 258.66 92.35 258.48C93.07 258.3 93.25 258.39 92.89 258.75C93.25 258.75 93.25 258.84 92.89 259.02C93.25 259.2 93.34 259.38 93.16 259.56C93.16 259.92 93.34 260.01 93.7 259.83C93.34 260.19 93.16 260.37 93.16 260.37C93.16 260.55 93.25 260.64 93.43 260.64C93.61 260.64 93.7 260.64 93.7 260.64C93.88 260.82 93.88 261 93.7 261.18C93.7 261.54 93.79 261.63 93.97 261.45C94.15 261.27 94.42 261.18 94.78 261.18C94.78 261.18 94.78 261.54 94.78 262.26C95.14 261.72 95.32 261.54 95.32 261.72C95.32 261.9 95.59 261.81 96.13 261.45C96.13 260.91 95.95 260.64 95.59 260.64C95.23 260.64 94.87 260.55 94.51 260.37C94.87 260.01 95.05 259.74 95.05 259.56C95.23 259.56 95.41 259.38 95.59 259.02C95.23 259.38 94.96 259.47 94.78 259.29C94.78 259.29 94.6 259.38 94.24 259.56L95.05 258.75C94.33 258.57 93.88 258.21 93.7 257.67C93.34 257.31 93.07 257.04 92.89 256.86C92.71 256.68 92.44 256.5 92.08 256.32C91.72 256.14 91.63 255.87 91.81 255.51C92.17 255.33 92.17 255.15 91.81 254.97C92.35 254.79 92.62 254.52 92.62 254.16C92.44 254.34 92.17 254.43 91.81 254.43C92.17 254.07 92.08 253.8 91.54 253.62C91.18 253.62 91 253.71 91 253.89C91 254.07 91.09 254.16 91.27 254.16C91.45 254.16 91.36 254.25 91 254.43C90.82 254.25 90.73 254.07 90.73 253.89C90.73 253.89 90.64 253.8 90.46 253.62C90.82 253.62 91 253.53 91 253.35C91 253.35 91.18 253.26 91.54 253.08C91.54 252.72 91.81 252.54 92.35 252.54C92.17 252.18 91.81 252.18 91.27 252.54C90.73 252.9 90.37 252.99 90.19 252.81C90.73 252.45 91.09 252.27 91.27 252.27C91.63 252.27 91.81 252.09 91.81 251.73C91.45 251.91 91.27 251.91 91.27 251.73C91.27 251.55 91.18 251.46 91 251.46C90.46 252 90.19 252.09 90.19 251.73C90.19 251.37 90.01 251.1 89.65 250.92C89.29 250.74 89.29 250.38 89.65 249.84ZM92.62 255.51C92.44 255.51 92.35 255.51 92.35 255.51H92.62ZM93.97 264.96C93.97 264.78 93.88 264.69 93.7 264.69C93.7 264.69 93.7 264.78 93.7 264.96H93.97ZM90.73 260.1C90.91 260.28 91.09 260.37 91.27 260.37C91.63 260.37 91.81 260.19 91.81 259.83V259.56C91.45 259.92 91.27 260.01 91.27 259.83C91.27 259.83 91.09 259.92 90.73 260.1ZM89.92 258.75H90.46C90.46 258.75 90.28 258.75 89.92 258.75ZM89.11 258.48H89.38C89.38 258.48 89.47 258.48 89.65 258.48C89.65 258.48 89.47 258.48 89.11 258.48ZM89.11 249.03C88.75 248.85 88.57 248.76 88.57 248.76C88.57 248.76 88.75 248.85 89.11 249.03ZM88.3 246.33C87.94 246.33 87.4 246.15 86.68 245.79C87.04 245.61 87.22 245.61 87.22 245.79C87.22 245.79 87.31 245.7 87.49 245.52C86.95 245.34 86.77 244.89 86.95 244.17C86.59 243.81 86.32 243.63 86.14 243.63C85.96 243.45 86.05 243.09 86.41 242.55C86.05 242.55 85.69 242.37 85.33 242.01H85.87C86.23 241.65 86.32 241.56 86.14 241.74C85.96 241.74 85.78 241.56 85.6 241.2C85.42 241.38 85.24 241.47 85.06 241.47V240.93C85.42 240.75 85.6 240.75 85.6 240.93C85.78 241.11 86.05 241.11 86.41 240.93C86.41 240.93 86.59 240.75 86.95 240.39V240.12C86.95 240.12 87.13 240.03 87.49 239.85C87.67 239.67 87.67 239.58 87.49 239.58C87.31 239.4 87.04 239.49 86.68 239.85V240.12C85.78 240.48 85.51 240.39 85.87 239.85C86.41 239.31 86.32 239.13 85.6 239.31C85.24 239.31 85.24 239.22 85.6 239.04C85.6 238.68 85.33 238.05 84.79 237.15C84.43 237.33 84.25 237.42 84.25 237.42C84.25 237.24 84.16 237.24 83.98 237.42C84.34 237.06 84.34 236.97 83.98 237.15C83.62 237.15 83.35 237.06 83.17 236.88C83.35 236.7 83.44 236.7 83.44 236.88C83.62 236.88 83.8 236.79 83.98 236.61C83.98 236.43 83.8 236.25 83.44 236.07C83.26 235.89 82.99 235.98 82.63 236.34C82.99 236.34 82.99 236.43 82.63 236.61C82.99 237.15 83.17 237.6 83.17 237.96C83.17 238.32 83.44 238.68 83.98 239.04C83.8 239.22 83.62 239.31 83.44 239.31C83.26 239.31 83.17 239.4 83.17 239.58C83.71 239.4 83.98 239.4 83.98 239.58C83.62 239.76 83.62 239.94 83.98 240.12C84.34 240.3 84.34 240.57 83.98 240.93C83.98 241.11 84.07 241.2 84.25 241.2C84.43 241.02 84.52 241.02 84.52 241.2C84.7 241.56 84.61 241.92 84.25 242.28C84.07 242.64 84.16 242.82 84.52 242.82C84.52 242.82 84.79 242.82 85.33 242.82C85.15 243.18 85.06 243.63 85.06 244.17C85.24 243.99 85.51 243.9 85.87 243.9C85.87 244.08 85.69 244.26 85.33 244.44C85.15 244.44 85.15 244.53 85.33 244.71C85.15 244.89 84.97 244.98 84.79 244.98C84.61 244.98 84.52 245.07 84.52 245.25H85.6C85.78 245.43 85.87 245.88 85.87 246.6C86.05 246.6 86.14 246.6 86.14 246.6C86.14 246.42 86.23 246.33 86.41 246.33H86.68C86.5 246.69 86.5 247.05 86.68 247.41C87.04 247.59 87.13 247.86 86.95 248.22C87.31 248.22 87.4 248.49 87.22 249.03C87.22 249.39 87.58 249.39 88.3 249.03C87.94 248.49 87.76 248.13 87.76 247.95C87.76 247.59 87.49 247.23 86.95 246.87C87.67 246.69 88.12 246.51 88.3 246.33ZM86.95 253.08C87.31 253.08 87.49 253.08 87.49 253.08H86.95ZM86.14 250.11C86.14 250.47 86.32 250.47 86.68 250.11H86.14ZM85.06 247.41C84.7 247.41 84.52 247.41 84.52 247.41H85.06ZM83.17 245.25C83.17 245.43 83.26 245.52 83.44 245.52C83.62 245.52 83.71 245.43 83.71 245.25H83.17ZM82.9 243.63C82.9 243.99 83.08 243.99 83.44 243.63H82.9ZM84.25 246.33C84.43 246.15 84.43 246.06 84.25 246.06C84.07 246.06 83.98 246.15 83.98 246.33H84.25ZM79.93 229.59C79.93 229.95 80.02 230.13 80.2 230.13C80.56 229.95 80.74 230.04 80.74 230.4C81.64 230.04 82 229.77 81.82 229.59C81.64 229.41 82 229.14 82.9 228.78C81.64 229.14 81.28 229.14 81.82 228.78C82.36 228.24 82.45 227.88 82.09 227.7C81.91 227.88 81.73 227.88 81.55 227.7H81.28H81.55C81.55 226.8 81.19 226.44 80.47 226.62C80.83 226.44 81.1 226.17 81.28 225.81C81.46 225.45 81.37 225.27 81.01 225.27C80.65 225.27 80.47 225.18 80.47 225C80.47 224.82 80.29 224.82 79.93 225C79.57 225.36 79.66 225.63 80.2 225.81C80.74 225.99 80.56 226.26 79.66 226.62C80.38 227.34 80.65 227.97 80.47 228.51C81.01 228.33 81.01 228.42 80.47 228.78C80.11 228.96 80.02 229.14 80.2 229.32C80.74 229.32 81.01 229.32 81.01 229.32C81.01 229.5 80.65 229.59 79.93 229.59ZM75.88 233.91C76.06 233.73 76.15 233.73 76.15 233.91H75.88ZM77.23 223.65C77.23 223.65 77.14 223.65 76.96 223.65H77.23ZM78.58 231.21C78.58 231.21 78.76 231.21 79.12 231.21C79.12 230.85 78.94 230.76 78.58 230.94V231.21ZM79.12 223.65C79.12 223.65 79.03 223.65 78.85 223.65H79.12ZM78.58 222.84C78.58 223.38 78.94 223.56 79.66 223.38C79.3 222.84 78.94 222.66 78.58 222.84ZM78.31 220.14C78.67 220.5 79.03 220.59 79.39 220.41L79.12 220.14H78.31ZM78.04 219.33C78.22 219.69 78.4 219.78 78.58 219.6C78.58 219.6 78.4 219.51 78.04 219.33ZM78.04 220.68C78.04 221.04 78.22 221.04 78.58 220.68H78.04ZM78.58 228.24C78.22 228.24 78.04 228.24 78.04 228.24C78.04 228.24 78.22 228.24 78.58 228.24ZM78.04 224.19C77.86 224.19 77.77 224.28 77.77 224.46L78.04 224.19ZM79.39 217.44C79.57 217.62 79.66 217.8 79.66 217.98C79.84 217.98 79.93 218.07 79.93 218.25V218.52H80.2H80.47V218.25H80.2V217.98L79.93 217.71C79.93 217.53 79.84 217.44 79.66 217.44C79.66 217.26 79.57 217.17 79.39 217.17L78.85 216.63V216.9C79.21 216.9 79.39 217.08 79.39 217.44ZM81.01 223.11V222.84C80.11 223.02 79.84 223.2 80.2 223.38C80.74 223.56 81.1 223.47 81.28 223.11H81.01ZM81.28 224.19C81.28 224.01 81.19 223.92 81.01 223.92C80.83 224.1 80.83 224.19 81.01 224.19H81.28ZM81.28 224.46C81.46 224.28 81.37 224.19 81.01 224.19C81.01 224.37 81.1 224.46 81.28 224.46ZM81.28 232.29C80.74 232.29 80.47 232.47 80.47 232.83C80.65 232.65 80.74 232.65 80.74 232.83C80.74 232.83 80.83 232.74 81.01 232.56C81.55 233.1 81.64 233.55 81.28 233.91C81.64 233.73 81.82 233.91 81.82 234.45C82 234.81 82.27 234.81 82.63 234.45C82.45 234.09 82.45 233.82 82.63 233.64C82.81 233.28 82.72 232.92 82.36 232.56C82.72 232.2 82.72 232.02 82.36 232.02C82.18 231.84 82.36 231.57 82.9 231.21C82.72 231.39 82.54 231.3 82.36 230.94H81.55C81.91 230.94 82.09 230.94 82.09 230.94C82.27 230.76 82.45 230.67 82.63 230.67C82.63 230.31 82.36 230.22 81.82 230.4C81.82 230.4 81.55 230.4 81.01 230.4C80.65 230.58 80.56 230.76 80.74 230.94C81.1 231.12 81.1 231.3 80.74 231.48C81.1 231.3 81.19 231.39 81.01 231.75C81.01 231.93 81.1 232.11 81.28 232.29ZM81.55 236.88C81.19 236.88 81.01 236.88 81.01 236.88H81.55ZM81.82 234.99C82 235.35 82 235.71 81.82 236.07C81.64 236.25 82 236.16 82.9 235.8C82.9 235.26 82.54 234.99 81.82 234.99ZM74.26 167.49L84.79 168.03C88.75 167.13 92.44 166.14 95.86 165.06C99.28 163.8 101.71 162.81 103.15 162.09C109.45 159.39 114.85 156.42 119.35 153.18C124.03 149.76 127.99 146.52 131.23 143.46C134.83 140.04 138.07 136.53 140.95 132.93C144.37 129.15 147.25 123.93 149.59 117.27C152.11 110.61 153.64 103.86 154.18 97.02C154.9 90 154.45 83.52 152.83 77.58C151.21 71.46 148.15 67.14 143.65 64.62C140.95 63.18 137.71 63.99 133.93 67.05C130.15 69.93 126.01 74.25 121.51 80.01C117.19 85.59 112.78 92.16 108.28 99.72C103.78 107.1 99.55 114.48 95.59 121.86C91.63 129.24 88.03 136.08 84.79 142.38C81.55 148.68 79.12 153.54 77.5 156.96L74.26 167.49ZM75.88 232.56C75.7 232.74 75.7 232.83 75.88 232.83V232.56ZM85.87 250.65V250.92V250.65ZM86.68 253.08L86.95 252.81H86.68V253.08ZM89.92 260.91C89.92 260.73 90.01 260.55 90.19 260.37C90.19 260.55 90.1 260.64 89.92 260.64C89.92 260.64 89.92 260.73 89.92 260.91ZM91.54 262.8V263.07C91.72 263.07 91.9 262.98 92.08 262.8H91.54ZM93.16 265.5H93.43H93.16ZM93.7 267.39C93.88 267.57 93.97 267.75 93.97 267.93C94.15 268.11 94.42 268.2 94.78 268.2C94.96 267.66 94.87 267.21 94.51 266.85C94.33 266.67 94.06 266.4 93.7 266.04V266.58C93.52 266.76 93.43 267.03 93.43 267.39C93.43 267.21 93.52 267.12 93.7 267.12V267.39ZM95.86 270.36C96.04 270.54 96.13 270.72 96.13 270.9L96.67 270.36C96.67 270.18 96.76 269.91 96.94 269.55C97.12 269.37 97.03 269.46 96.67 269.82L95.86 270.36ZM97.48 274.41H97.21H97.48H97.21V274.68H97.48V274.41ZM97.75 274.14L97.21 273.87V274.14V274.41H97.48V274.14H97.75ZM100.72 275.76C100.9 275.76 101.08 275.67 101.26 275.49H101.53C101.35 275.49 101.26 275.58 101.26 275.76C101.44 275.94 101.53 276.12 101.53 276.3C101.53 276.66 101.71 276.66 102.07 276.3C102.07 276.3 102.25 275.94 102.61 275.22C102.43 275.04 102.25 275.04 102.07 275.22C101.89 275.4 101.71 275.49 101.53 275.49C101.71 275.13 101.62 275.13 101.26 275.49C101.08 274.95 100.81 274.5 100.45 274.14C100.09 273.78 99.73 273.51 99.37 273.33C99.37 273.33 99.37 273.24 99.37 273.06V272.79C99.01 272.61 98.65 272.52 98.29 272.52C97.93 272.52 97.93 272.16 98.29 271.44L97.75 271.98C97.93 271.62 98.2 271.26 98.56 270.9C98.38 270.54 98.11 270.45 97.75 270.63C97.39 270.99 97.03 271.26 96.67 271.44L96.94 271.71C97.12 271.71 97.21 271.71 97.21 271.71C97.21 271.89 97.39 271.98 97.75 271.98H97.48C97.48 271.98 97.57 272.07 97.75 272.25C97.75 272.43 97.75 272.52 97.75 272.52C97.93 272.7 98.02 272.88 98.02 273.06H98.29V273.33V273.87C99.19 273.51 99.82 273.51 100.18 273.87H99.91V274.14H99.64V274.41H100.18V274.68C100.36 274.86 100.45 275.04 100.45 275.22C100.63 275.22 100.72 275.31 100.72 275.49C100.72 275.67 100.63 275.76 100.45 275.76H100.72ZM105.31 280.89H105.58V280.62H105.31C104.95 280.44 104.68 280.26 104.5 280.08C104.32 279.9 104.05 279.72 103.69 279.54C104.05 279.54 104.23 279.54 104.23 279.54C104.41 279.72 104.77 279.54 105.31 279C104.95 279 104.86 278.82 105.04 278.46C105.4 278.28 105.49 278.19 105.31 278.19C104.95 279.09 104.77 279.18 104.77 278.46C104.77 277.74 104.5 277.74 103.96 278.46C104.14 278.46 103.96 278.73 103.42 279.27V279.54C103.6 279.54 103.69 279.63 103.69 279.81V280.08C103.69 280.08 103.78 280.17 103.96 280.35H104.5H104.23V280.62C104.59 280.62 104.86 280.71 105.04 280.89H105.31ZM109.36 284.13L109.09 283.86C109.27 283.86 109.36 283.95 109.36 284.13ZM109.09 283.59C108.91 283.23 108.46 282.87 107.74 282.51C107.38 282.15 107.11 281.97 106.93 281.97C107.29 281.79 107.47 281.79 107.47 281.97C107.65 282.15 107.92 282.06 108.28 281.7C108.64 280.8 108.64 280.35 108.28 280.35C108.1 280.53 107.83 280.53 107.47 280.35C107.11 280.71 106.93 280.89 106.93 280.89C107.11 281.07 107.11 281.34 106.93 281.7C106.57 281.34 106.3 281.16 106.12 281.16H105.85H105.58V281.43H105.31V281.7H105.58H106.12L105.85 282.24H106.12C106.3 282.24 106.39 282.33 106.39 282.51C106.93 282.51 107.29 282.6 107.47 282.78H107.74C107.74 282.78 107.83 282.78 108.01 282.78V283.32H108.28V283.59C108.46 283.59 108.55 283.68 108.55 283.86C108.73 283.86 108.82 283.77 108.82 283.59L109.09 283.32V283.59ZM109.9 280.89C110.08 280.89 110.17 280.71 110.17 280.35C110.17 280.35 110.08 280.53 109.9 280.89ZM110.17 281.16L110.71 280.62C110.53 280.8 110.44 280.89 110.44 280.89C110.26 280.89 110.17 280.98 110.17 281.16ZM110.44 281.43C110.44 281.61 110.44 281.61 110.44 281.43C110.62 281.43 110.71 281.34 110.71 281.16L110.44 281.43ZM112.06 279C112.06 279.18 112.06 279.18 112.06 279C112.24 279 112.33 278.91 112.33 278.73C112.33 278.73 112.24 278.82 112.06 279ZM112.87 282.78C112.87 282.78 112.96 282.69 113.14 282.51C113.14 282.33 113.05 282.24 112.87 282.24C112.87 282.42 112.87 282.6 112.87 282.78ZM113.14 285.21C113.5 284.85 113.68 284.31 113.68 283.59C113.14 284.49 112.96 285.03 113.14 285.21ZM114.76 285.75C115.12 285.03 115.12 284.67 114.76 284.67C114.4 284.85 114.13 285.12 113.95 285.48C114.31 285.66 114.49 285.66 114.49 285.48C114.49 285.3 114.58 285.39 114.76 285.75ZM113.95 280.08C114.13 279.72 114.22 279.54 114.22 279.54C114.04 279.9 113.95 280.08 113.95 280.08ZM115.3 285.75C115.3 285.57 115.21 285.48 115.03 285.48C115.03 285.66 115.03 285.84 115.03 286.02L115.3 285.75ZM118 287.37C118 287.19 118 287.1 118 287.1C118.18 287.28 118.27 287.28 118.27 287.1C118.09 287.28 118 287.37 118 287.37ZM117.73 281.43C117.91 281.61 118.09 281.52 118.27 281.16C118.45 280.98 118.63 281.07 118.81 281.43C118.81 281.61 118.81 281.7 118.81 281.7C118.99 281.7 119.08 281.79 119.08 281.97V281.43C119.44 281.43 119.98 281.61 120.7 281.97C121.06 282.33 121.6 282.24 122.32 281.7C121.6 281.34 120.7 280.98 119.62 280.62C118.54 280.26 117.73 279.72 117.19 279C116.47 279 115.57 278.64 114.49 277.92C113.59 277.38 112.6 277.11 111.52 277.11C112.06 276.57 112.06 276.3 111.52 276.3C111.16 276.48 110.98 276.39 110.98 276.03C110.98 275.67 110.71 275.67 110.17 276.03C110.17 275.31 109.81 274.77 109.09 274.41C108.73 274.23 108.37 274.05 108.01 273.87C107.83 273.69 107.56 273.42 107.2 273.06C106.84 273.42 106.66 273.33 106.66 272.79C106.84 272.43 106.57 272.7 105.85 273.6C106.21 273.96 106.57 274.23 106.93 274.41C107.29 274.59 107.65 274.86 108.01 275.22C108.73 275.4 109.36 276.03 109.9 277.11C110.44 277.11 111.25 277.47 112.33 278.19C112.69 278.37 113.14 278.55 113.68 278.73C114.22 278.91 114.76 279 115.3 279C115.48 279.72 115.84 280.08 116.38 280.08C117.1 280.44 117.55 280.8 117.73 281.16C117.55 281.16 117.37 281.07 117.19 280.89C117.19 280.71 117.01 280.8 116.65 281.16C116.65 282.06 117.01 282.15 117.73 281.43ZM120.97 282.78C120.97 282.6 120.88 282.51 120.7 282.51C120.7 282.51 120.7 282.6 120.7 282.78V283.05L120.97 282.78ZM119.62 281.97C119.44 282.15 119.26 282.24 119.08 282.24C119.26 282.06 119.44 281.97 119.62 281.97ZM120.97 288.99C121.33 288.09 121.24 287.73 120.7 287.91C120.34 288.27 120.25 288.09 120.43 287.37C120.07 287.73 119.8 287.73 119.62 287.37C119.44 287.19 119.17 287.37 118.81 287.91C119.17 288.27 119.53 288.45 119.89 288.45C120.25 288.45 120.61 288.63 120.97 288.99ZM122.32 283.05C122.32 282.87 122.23 282.78 122.05 282.78C122.05 282.96 122.05 283.14 122.05 283.32L122.32 283.05ZM123.4 283.32C123.58 282.96 123.58 282.69 123.4 282.51C123.22 282.51 123.22 282.33 123.4 281.97C123.04 282.33 122.77 282.42 122.59 282.24C122.41 282.06 122.14 282.15 121.78 282.51C122.14 282.69 122.32 282.87 122.32 283.05C122.5 283.23 122.68 283.32 122.86 283.32L122.59 283.59C122.59 283.77 122.68 283.77 122.86 283.59C123.04 283.59 123.22 283.5 123.4 283.32ZM124.21 289.8C124.21 289.98 124.21 289.98 124.21 289.8C124.39 289.8 124.48 289.71 124.48 289.53C124.48 289.35 124.39 289.26 124.21 289.26C124.21 289.44 124.21 289.62 124.21 289.8ZM125.56 285.21C125.56 285.39 125.56 285.39 125.56 285.21C125.74 285.21 125.83 285.12 125.83 284.94C125.83 284.76 125.74 284.67 125.56 284.67C125.56 284.85 125.56 285.03 125.56 285.21ZM125.29 283.32C125.29 284.04 125.56 284.4 126.1 284.4C126.82 284.4 127.36 284.49 127.72 284.67V284.4C127.72 284.22 127.36 283.95 126.64 283.59C126.46 283.41 126.01 283.32 125.29 283.32ZM127.45 290.61C127.63 290.25 127.72 290.07 127.72 290.07C127.54 290.43 127.45 290.61 127.45 290.61ZM127.72 290.88C127.9 290.7 127.99 290.61 127.99 290.61C127.81 290.79 127.72 290.88 127.72 290.88ZM129.34 285.21C129.52 284.85 129.52 284.67 129.34 284.67C129.16 284.67 129.25 284.49 129.61 284.13C129.25 284.13 129.07 284.22 129.07 284.4C129.07 284.76 129.07 285.03 129.07 285.21C129.07 285.57 129.16 285.57 129.34 285.21ZM130.15 291.42C130.15 291.42 130.15 291.33 130.15 291.15C130.15 291.33 130.15 291.42 130.15 291.42ZM130.15 284.94C130.15 284.94 130.24 284.85 130.42 284.67H130.15C129.79 285.03 129.61 285.39 129.61 285.75C129.79 286.11 129.97 286.02 130.15 285.48C130.15 285.48 130.15 285.3 130.15 284.94ZM130.96 285.48C130.96 285.12 131.05 284.85 131.23 284.67H130.96C130.78 284.85 130.69 285.12 130.69 285.48H130.96ZM136.63 286.56C136.81 286.74 136.9 286.65 136.9 286.29L136.63 286.56ZM136.63 285.75C136.63 285.93 136.54 285.93 136.36 285.75C136.36 285.75 136.36 285.93 136.36 286.29C136.54 286.29 136.63 286.11 136.63 285.75ZM132.31 287.91C132.85 287.91 133.3 287.64 133.66 287.1C133.48 286.74 133.3 286.65 133.12 286.83C132.94 287.19 132.67 287.55 132.31 287.91ZM135.01 286.02C135.37 286.02 135.55 285.93 135.55 285.75C135.19 285.75 135.01 285.84 135.01 286.02ZM135.82 287.1C135.82 287.46 135.82 287.55 135.82 287.37C136 287.37 136.09 287.28 136.09 287.1H135.82V286.56C135.64 286.56 135.46 286.83 135.28 287.37C135.28 287.55 135.37 287.55 135.55 287.37L135.82 287.1ZM136.36 292.23C136.54 291.87 136.63 291.69 136.63 291.69C136.45 292.05 136.36 292.23 136.36 292.23ZM136.63 288.45C136.63 288.27 136.63 288.18 136.63 288.18C136.81 288.36 136.9 288.27 136.9 287.91C136.72 288.09 136.54 288.09 136.36 287.91C136.18 287.73 136.09 287.82 136.09 288.18C136.27 288.36 136.45 288.45 136.63 288.45ZM136.9 287.64C137.08 287.46 137.17 287.28 137.17 287.1H136.9V287.64Z" fill="white"/>
<path d="M325.23 272.52C326.13 272.7 326.94 273.06 327.66 273.6C328.38 274.14 328.92 274.77 329.28 275.49C329.82 276.21 330.18 277.11 330.36 278.19C330.18 279.09 329.19 280.17 327.39 281.43C325.77 282.87 323.79 284.22 321.45 285.48C319.29 286.92 317.13 288.18 314.97 289.26C312.81 290.52 311.19 291.42 310.11 291.96C309.57 292.32 308.67 292.5 307.41 292.5C303.99 292.5 300.84 292.23 297.96 291.69C297.96 291.69 298.05 291.51 298.23 291.15C297.87 291.15 297.6 291.33 297.42 291.69C295.8 291.51 294 291.06 292.02 290.34C292.02 290.34 292.02 290.25 292.02 290.07C292.02 289.89 291.93 289.8 291.75 289.8C291.75 289.98 291.75 290.16 291.75 290.34H292.02H291.48C291.48 290.34 291.57 290.16 291.75 289.8C291.75 289.8 291.66 289.98 291.48 290.34C288.78 289.44 286.26 288.45 283.92 287.37C281.58 286.47 279.24 285.3 276.9 283.86C277.62 283.14 277.98 283.05 277.98 283.59C277.98 284.13 278.25 284.31 278.79 284.13C279.15 284.13 279.24 284.31 279.06 284.67C278.88 285.03 278.97 284.76 279.33 283.86C279.51 284.22 279.51 284.49 279.33 284.67C279.33 285.03 279.51 284.85 279.87 284.13V283.59C279.87 283.05 279.69 283.14 279.33 283.86H279.06C279.06 283.86 278.97 283.95 278.79 284.13C279.15 283.41 279.15 283.05 278.79 283.05C278.43 283.23 278.43 283.14 278.79 282.78C278.61 282.6 278.16 282.51 277.44 282.51C277.44 281.61 276.9 281.34 275.82 281.7C275.46 282.42 275.46 282.69 275.82 282.51C276.36 282.33 276.63 282.51 276.63 283.05C276.99 283.05 277.08 283.32 276.9 283.86C276.9 283.86 276.72 283.77 276.36 283.59V284.13L276.63 283.86V284.13V284.4C276.81 284.4 276.9 284.4 276.9 284.4C276.9 284.58 276.99 284.67 277.17 284.67C277.17 284.67 277.26 284.76 277.44 284.94C277.62 285.12 277.89 285.21 278.25 285.21C278.43 285.39 278.52 285.48 278.52 285.48C278.7 285.48 278.88 285.57 279.06 285.75C279.06 285.75 279.15 285.93 279.33 286.29L279.87 286.83C279.87 287.01 279.87 287.1 279.87 287.1C280.05 287.1 280.14 287.19 280.14 287.37H280.41H280.68V287.1C281.04 287.28 281.31 287.37 281.49 287.37C281.67 287.37 281.85 287.46 282.03 287.64L282.3 287.37H282.57C282.75 287.55 282.93 287.64 283.11 287.64C283.29 287.82 283.56 287.91 283.92 287.91C284.28 288.27 284.46 288.54 284.46 288.72L284.73 288.99L285 289.26C285.18 289.26 285.27 289.26 285.27 289.26C285.27 289.44 285.36 289.53 285.54 289.53V289.8L285.81 290.07H286.35C286.71 290.07 286.89 290.25 286.89 290.61C286.89 290.43 286.8 290.34 286.62 290.34L287.16 290.88C287.16 290.7 287.07 290.61 286.89 290.61C287.07 290.61 287.25 290.7 287.43 290.88C287.61 290.88 287.79 290.97 287.97 291.15C288.51 291.15 288.87 291.24 289.05 291.42H289.86V291.69C290.04 291.51 290.22 291.51 290.4 291.69H290.67C290.85 291.69 291.03 291.78 291.21 291.96L291.75 292.23V292.5V292.77H291.48L291.75 293.04H292.02V293.31H292.56H293.1V293.04L292.83 292.77C292.83 292.77 292.92 292.86 293.1 293.04V292.77H293.37C293.37 292.77 293.46 292.68 293.64 292.5C293.64 292.86 293.82 293.04 294.18 293.04L294.45 293.31H294.99C294.99 293.31 295.08 293.31 295.26 293.31H295.53C295.53 293.49 295.62 293.58 295.8 293.58V293.85V294.12H295.53C294.99 294.12 294.63 294.21 294.45 294.39V294.66V294.93H294.18C294 294.93 293.82 294.84 293.64 294.66L293.37 294.39H293.1H293.37V294.12H292.29V294.39V294.66C292.29 295.02 292.11 295.2 291.75 295.2C291.03 294.84 290.4 294.57 289.86 294.39C289.14 294.03 288.69 293.76 288.51 293.58L288.78 293.31H289.05V293.04H289.32C289.32 293.04 289.41 293.13 289.59 293.31C289.59 293.31 289.77 293.49 290.13 293.85L290.4 293.58V293.31V293.04C290.4 292.86 290.31 292.77 290.13 292.77H289.32C289.14 292.95 288.69 292.95 287.97 292.77L288.24 292.5H287.7C286.98 292.32 286.44 292.41 286.08 292.77C286.44 292.77 286.71 292.86 286.89 293.04C287.07 293.04 287.16 293.13 287.16 293.31L286.89 293.58V293.85C286.89 293.85 286.71 293.76 286.35 293.58C285.99 293.58 285.81 293.67 285.81 293.85H285.54C285.54 293.67 285.63 293.49 285.81 293.31H285.54V293.04C285.54 292.86 285.45 292.77 285.27 292.77C284.91 292.41 284.64 292.23 284.46 292.23C284.1 291.87 283.74 291.6 283.38 291.42V291.15C283.02 290.97 282.66 291.06 282.3 291.42C282.3 291.42 282.21 291.51 282.03 291.69C281.85 291.69 281.76 291.6 281.76 291.42H281.49H281.22C281.22 291.42 281.04 291.42 280.68 291.42C280.32 291.42 280.32 291.24 280.68 290.88H280.41V291.15V291.42L280.14 291.15C280.14 290.97 280.23 290.79 280.41 290.61C280.41 290.61 280.59 290.43 280.95 290.07H281.22V289.8C281.04 289.8 280.95 289.71 280.95 289.53V288.99L280.41 289.8V289.53L280.95 288.99C280.77 288.99 280.68 288.81 280.68 288.45C280.5 288.45 280.23 288.63 279.87 288.99C279.51 289.71 279.33 290.25 279.33 290.61V290.88H279.06V291.15C278.88 291.15 278.79 290.97 278.79 290.61V290.34C278.79 290.16 278.7 290.07 278.52 290.07C278.34 289.89 278.16 289.8 277.98 289.8H277.44V289.53C277.44 289.35 277.26 289.26 276.9 289.26L277.17 288.99L277.44 288.72C277.44 288.72 277.53 288.63 277.71 288.45C277.35 288.09 276.72 288.09 275.82 288.45L277.17 288.72V288.99C276.99 289.17 276.72 289.17 276.36 288.99C276 288.99 275.82 289.08 275.82 289.26H275.55C275.55 289.26 275.46 289.08 275.28 288.72C275.1 288.54 274.92 288.45 274.74 288.45V288.18L275.01 287.91V288.18V287.91V287.64C275.01 287.46 275.1 287.37 275.28 287.37C275.82 287.37 276.18 287.28 276.36 287.1C276.72 287.1 276.99 287.01 277.17 286.83C277.35 286.83 277.62 286.83 277.98 286.83L277.71 286.56V286.29C277.35 286.29 276.81 286.38 276.09 286.56C275.55 286.74 275.1 286.92 274.74 287.1V287.37C274.38 287.19 274.38 286.92 274.74 286.56L275.28 286.02H274.2C273.66 286.02 273.39 286.02 273.39 286.02V286.29H273.12H272.85C272.85 286.11 272.76 286.02 272.58 286.02V285.75H272.31V285.48C272.31 285.3 272.4 285.12 272.58 284.94H271.77H271.5C271.5 284.94 271.59 284.85 271.77 284.67H272.04L272.31 284.4V284.13C272.13 284.13 271.95 284.22 271.77 284.4L271.5 284.67C271.32 284.49 271.23 284.31 271.23 284.13V283.32C271.23 283.5 271.14 283.68 270.96 283.86V284.13H270.69C270.51 284.13 270.42 284.04 270.42 283.86C270.42 283.86 270.33 283.86 270.15 283.86V283.59V283.32C270.15 283.14 269.88 283.05 269.34 283.05L270.69 282.51L270.15 283.32H270.42C270.6 283.32 270.69 283.23 270.69 283.05C270.69 283.05 270.78 283.05 270.96 283.05L271.5 282.51C271.5 282.51 271.59 282.33 271.77 281.97C271.77 282.15 271.68 282.24 271.5 282.24H270.42C270.24 282.42 269.97 282.51 269.61 282.51H269.07C269.25 282.51 269.34 282.42 269.34 282.24C269.34 282.24 269.43 282.15 269.61 281.97C269.25 282.15 268.89 282.06 268.53 281.7C268.35 281.52 268.17 281.25 267.99 280.89C267.63 280.53 267.45 280.35 267.45 280.35H267.72C267.54 280.17 267.45 279.99 267.45 279.81H266.91L267.18 279.54H266.64C266.28 279.54 266.1 279.45 266.1 279.27V279L266.37 278.73C266.19 278.73 266.01 278.64 265.83 278.46C265.83 278.46 265.74 278.46 265.56 278.46V278.73H265.29V278.46V278.19V277.92L264.21 277.38H264.48V277.11V276.84H264.75C265.11 277.2 265.29 277.38 265.29 277.38C265.47 277.38 265.65 277.47 265.83 277.65V277.92L266.37 277.38C266.01 277.02 265.29 276.84 264.21 276.84C264.03 276.66 263.85 276.57 263.67 276.57L263.13 275.49H262.86L263.4 275.22H263.13C263.13 275.04 263.04 274.95 262.86 274.95H263.13H262.86V274.68H263.13C263.31 274.5 263.49 274.41 263.67 274.41C263.49 274.23 263.22 274.14 262.86 274.14V274.41V274.95C262.86 274.77 262.77 274.68 262.59 274.68C262.59 274.68 262.59 274.59 262.59 274.41V274.68V273.87C262.05 273.69 261.6 273.51 261.24 273.33H260.97V273.06C261.15 273.06 261.24 272.97 261.24 272.79H260.97C260.79 272.61 260.7 272.34 260.7 271.98V271.44H260.43C260.25 271.26 260.07 271.26 259.89 271.44H259.62V271.17H259.08C259.08 271.17 259.17 271.08 259.35 270.9H259.62V270.63H259.35C258.99 270.45 258.63 270.18 258.27 269.82V269.28H258C258 269.28 257.91 269.37 257.73 269.55H257.46V269.28C257.64 269.1 257.73 268.83 257.73 268.47H257.46C257.1 268.47 256.83 268.38 256.65 268.2H256.92V267.93H257.19C257.19 267.75 257.1 267.66 256.92 267.66V267.12C256.74 267.12 256.65 266.94 256.65 266.58H256.38V267.39C256.2 267.39 256.11 267.48 256.11 267.66C255.93 267.66 255.84 267.75 255.84 267.93V267.66V267.12C255.48 266.94 255.48 266.67 255.84 266.31C255.84 266.31 255.93 266.22 256.11 266.04L255.84 265.77C255.66 265.77 255.57 265.68 255.57 265.5C255.57 265.5 255.66 265.32 255.84 264.96H256.11C255.93 264.78 255.66 264.69 255.3 264.69L255.03 263.88H254.76L255.03 263.61L254.49 263.34L254.76 263.07H254.49H254.76V262.8C254.58 262.62 254.31 262.53 253.95 262.53C253.77 262.53 253.59 262.44 253.41 262.26V261.99C253.41 261.99 253.5 261.9 253.68 261.72C253.32 261.9 252.96 261.72 252.6 261.18C252.24 260.64 251.97 260.37 251.79 260.37H251.52C251.7 260.19 251.88 260.1 252.06 260.1C252.06 259.92 252.15 259.92 252.33 260.1H252.6C252.6 260.1 252.69 260.01 252.87 259.83C252.51 259.47 252.24 259.29 252.06 259.29H251.79C251.79 259.11 251.88 259.02 252.06 259.02L252.33 258.75V258.48H252.06C252.06 258.3 251.97 258.21 251.79 258.21C251.79 258.21 251.7 258.3 251.52 258.48H251.25L251.52 257.67C251.16 257.67 250.98 257.49 250.98 257.13C250.8 256.95 250.71 256.77 250.71 256.59V255.78H250.44C250.26 255.78 250.08 255.69 249.9 255.51H250.44H250.17C250.17 255.33 249.99 255.06 249.63 254.7C249.63 254.7 249.45 254.52 249.09 254.16C249.09 253.98 249.18 253.89 249.36 253.89V253.62L248.82 252.81V252.54H249.09C249.27 252.72 249.45 252.81 249.63 252.81L249.36 252.54L249.09 252.27H249.36L248.82 251.73C248.82 251.91 248.73 252 248.55 252V251.73C248.55 251.55 248.46 251.46 248.28 251.46C248.28 251.46 248.28 251.37 248.28 251.19V250.65H248.55H248.82H249.09V250.92V250.65C249.09 250.47 249 250.38 248.82 250.38H248.55H248.28V249.84L247.74 249.3C247.92 249.3 248.01 249.21 248.01 249.03L247.74 248.76H248.01H248.28H248.55C248.37 248.58 248.19 248.49 248.01 248.49C248.01 248.49 247.92 248.4 247.74 248.22C247.56 248.22 247.47 248.13 247.47 247.95H247.74L248.01 247.68H247.47L247.2 247.41H246.93C246.93 247.41 246.84 247.32 246.66 247.14V246.6H246.39C246.21 246.24 246.3 245.88 246.66 245.52C246.66 244.98 246.66 244.71 246.66 244.71V244.44H246.39C246.21 244.62 246.21 244.8 246.39 244.98C246.39 244.98 246.3 245.07 246.12 245.25H245.85V244.98V244.44V243.9C245.85 243.9 245.76 243.81 245.58 243.63H245.85V243.36H246.12C245.94 243.36 245.85 243.18 245.85 242.82C245.67 242.82 245.58 242.73 245.58 242.55V242.28C245.58 242.28 245.4 242.19 245.04 242.01H245.31V241.74C245.13 241.74 245.04 241.65 245.04 241.47V241.2H245.31C245.31 241.2 245.22 241.11 245.04 240.93V240.66C245.04 240.66 244.95 240.57 244.77 240.39V240.12V239.85V239.58C244.77 239.4 244.68 239.22 244.5 239.04C244.5 238.86 244.5 238.68 244.5 238.5H244.23V238.23C244.23 238.05 244.14 237.96 243.96 237.96C243.96 237.78 243.96 237.51 243.96 237.15L243.69 236.88V236.61C243.51 236.25 243.42 235.89 243.42 235.53C243.42 235.17 243.33 234.81 243.15 234.45C242.97 234.45 242.88 234.36 242.88 234.18C242.88 233.64 242.7 233.01 242.34 232.29C242.34 232.47 242.52 232.56 242.88 232.56V232.29H242.34C242.16 231.93 242.07 231.66 242.07 231.48C242.07 231.12 241.98 230.76 241.8 230.4C241.8 230.22 241.71 230.04 241.53 229.86C241.53 229.32 241.44 228.96 241.26 228.78C241.26 228.42 241.17 228.24 240.99 228.24C240.99 228.06 240.99 227.79 240.99 227.43H240.72V227.16C240.54 227.16 240.45 226.98 240.45 226.62V226.08H240.72C240.54 225.9 240.45 225.72 240.45 225.54V225.27C238.83 219.15 237.57 213.21 236.67 207.45C235.77 201.51 235.05 196.02 234.51 190.98C231.45 201.6 228.48 211.95 225.6 222.03C222.9 232.11 220.47 241.29 218.31 249.57C216.33 257.85 214.71 264.87 213.45 270.63C212.37 276.57 211.83 280.62 211.83 282.78C211.65 285.66 211.38 288.18 211.02 290.34C210.66 292.32 210.12 293.94 209.4 295.2C208.86 296.64 208.05 297.18 206.97 296.82C205.53 296.28 203.46 295.02 200.76 293.04C198.24 291.06 195.81 288.27 193.47 284.67C191.31 281.25 189.69 277.02 188.61 271.98C187.53 267.12 187.71 261.45 189.15 254.97C190.23 250.65 191.76 244.71 193.74 237.15C195.9 229.59 198.24 221.31 200.76 212.31C203.46 203.13 206.25 193.68 209.13 183.96C212.01 174.06 214.8 164.7 217.5 155.88C220.2 146.88 222.63 138.78 224.79 131.58C226.95 124.38 228.66 118.8 229.92 114.84C233.7 103.14 236.76 92.07 239.1 81.63C241.62 71.19 242.79 63.09 242.61 57.33C242.61 56.07 242.7 54.99 242.88 54.09C243.24 52.29 244.41 51.48 246.39 51.66C247.65 52.02 249.72 52.83 252.6 54.09C255.48 55.35 258.18 57.33 260.7 60.03C263.22 62.55 265.11 65.97 266.37 70.29C267.81 74.43 267.63 79.56 265.83 85.68C265.47 86.76 265.02 88.11 264.48 89.73C263.94 91.35 263.4 93.24 262.86 95.4C266.46 88.2 270.33 81.09 274.47 74.07C278.61 66.87 282.75 60.57 286.89 55.17C291.21 49.77 295.26 45.63 299.04 42.75C303 39.87 306.6 39.06 309.84 40.32C315.42 42.66 320.73 45.99 325.77 50.31C330.99 54.63 335.31 59.94 338.73 66.24C342.33 72.54 344.76 79.92 346.02 88.38C347.28 96.84 346.92 106.29 344.94 116.73C343.5 123.75 340.62 130.68 336.3 137.52C332.16 144.18 327.21 150.3 321.45 155.88C315.69 161.46 309.39 166.32 302.55 170.46C295.89 174.6 289.41 177.66 283.11 179.64C280.77 180.54 278.43 181.35 276.09 182.07C274.11 182.79 271.77 183.51 269.07 184.23C266.37 184.95 263.76 185.49 261.24 185.85C260.34 186.03 259.35 186.21 258.27 186.39C257.37 186.39 256.38 186.48 255.3 186.66C257.64 202.86 260.88 216.27 265.02 226.89C269.16 237.33 273.75 245.7 278.79 252C283.83 258.3 288.96 262.89 294.18 265.77C299.4 268.83 304.17 270.81 308.49 271.71C312.99 272.61 316.77 272.97 319.83 272.79C322.89 272.61 324.69 272.52 325.23 272.52ZM267.18 265.23C266.28 265.05 265.74 264.78 265.56 264.42C265.38 264.06 264.84 263.79 263.94 263.61C264.3 262.89 264.57 262.44 264.75 262.26C264.39 262.44 264.12 262.53 263.94 262.53C263.76 262.53 263.49 262.62 263.13 262.8C263.31 262.98 263.49 263.25 263.67 263.61C263.85 263.97 264.03 264.24 264.21 264.42L263.94 264.69C264.48 264.69 264.84 264.87 265.02 265.23C265.38 265.77 265.92 266.13 266.64 266.31C266.46 266.67 266.37 266.85 266.37 266.85C266.55 266.85 266.55 267.03 266.37 267.39C266.73 267.75 267.09 267.93 267.45 267.93C267.99 268.11 268.35 268.56 268.53 269.28C268.53 269.64 268.62 269.64 268.8 269.28C268.98 269.1 269.16 269.19 269.34 269.55C269.16 269.73 269.16 269.91 269.34 270.09C269.88 270.45 270.15 270.72 270.15 270.9C270.15 271.08 270.42 271.26 270.96 271.44C270.96 271.62 271.23 271.8 271.77 271.98C272.13 272.34 272.31 272.52 272.31 272.52C272.67 272.52 272.85 272.61 272.85 272.79C273.03 273.15 273.3 273.06 273.66 272.52C273.84 272.16 273.75 271.89 273.39 271.71C273.03 271.53 272.76 271.53 272.58 271.71C272.58 271.17 272.22 270.54 271.5 269.82C270.78 269.46 270.42 269.1 270.42 268.74C269.7 268.92 269.34 268.56 269.34 267.66C268.98 267.48 268.62 267.3 268.26 267.12C268.08 267.12 268.17 266.76 268.53 266.04C267.81 266.4 267.45 266.4 267.45 266.04C267.63 265.68 267.54 265.41 267.18 265.23ZM273.93 278.46C273.57 278.82 273.39 278.91 273.39 278.73L273.93 278.46ZM273.66 276.84C273.66 277.02 273.75 277.02 273.93 276.84C274.11 276.84 274.2 276.75 274.2 276.57C274.2 276.57 274.02 276.66 273.66 276.84ZM274.2 280.35C273.84 280.17 273.57 279.9 273.39 279.54C273.21 279.18 272.94 279.09 272.58 279.27C272.58 279.27 272.58 279.45 272.58 279.81C272.76 279.81 272.94 279.99 273.12 280.35C273.3 280.89 273.66 280.89 274.2 280.35ZM272.31 274.41C272.31 274.41 272.22 274.5 272.04 274.68C272.04 274.86 272.04 274.86 272.04 274.68C272.22 274.68 272.31 274.59 272.31 274.41ZM272.04 277.38C271.68 277.56 271.5 277.65 271.5 277.65C271.86 277.47 272.04 277.38 272.04 277.38ZM269.61 277.38C269.61 277.56 269.7 277.56 269.88 277.38C270.06 277.38 270.15 277.29 270.15 277.11C270.15 277.11 269.97 277.2 269.61 277.38ZM270.69 278.19C270.69 278.01 270.6 277.92 270.42 277.92C270.24 278.1 270.15 278.19 270.15 278.19C270.33 278.37 270.51 278.37 270.69 278.19ZM267.99 273.06C267.99 272.88 267.81 272.97 267.45 273.33H267.72C267.72 273.33 267.81 273.24 267.99 273.06ZM266.1 272.25C265.92 272.43 265.83 272.43 265.83 272.25H266.1ZM265.56 269.28C265.56 269.1 265.47 269.1 265.29 269.28C265.29 269.46 265.38 269.46 265.56 269.28ZM264.75 267.93C264.75 267.75 264.66 267.75 264.48 267.93H264.75ZM263.67 260.37C263.31 260.55 263.13 260.64 263.13 260.64C263.49 260.46 263.67 260.37 263.67 260.37ZM263.4 260.1C263.4 260.28 263.31 260.37 263.13 260.37C263.31 260.19 263.4 260.1 263.4 260.1ZM263.13 260.1C263.31 259.92 263.31 259.83 263.13 259.83C262.95 259.83 262.86 259.92 262.86 260.1H263.13ZM262.05 257.4V257.67H261.78C261.42 257.85 261.33 257.85 261.51 257.67C261.69 257.67 261.87 257.58 262.05 257.4ZM260.16 256.32C260.16 256.14 260.07 256.14 259.89 256.32H260.16ZM256.65 249.84C256.47 249.84 256.2 249.66 255.84 249.3C254.94 249.66 254.58 249.93 254.76 250.11C255.12 250.29 255.3 250.65 255.3 251.19C255.48 251.55 255.84 251.82 256.38 252C256.2 252.18 256.02 252.27 255.84 252.27C255.66 252.45 255.75 252.54 256.11 252.54C256.11 252.54 256.11 252.72 256.11 253.08L255.84 253.35C255.66 253.71 255.66 253.8 255.84 253.62C256.2 253.62 256.47 253.71 256.65 253.89C256.65 254.43 257.01 254.7 257.73 254.7C257.73 255.06 257.55 255.33 257.19 255.51C257.37 255.87 257.46 255.87 257.46 255.51C257.64 255.15 257.82 255.06 258 255.24C257.82 255.6 257.82 255.78 258 255.78C258.36 255.96 258.36 256.14 258 256.32C258.36 256.32 258.54 256.41 258.54 256.59C258.36 256.59 258.09 256.77 257.73 257.13C257.91 257.49 258.18 257.58 258.54 257.4C259.08 257.22 259.44 257.31 259.62 257.67C258.72 258.39 258.63 258.66 259.35 258.48C260.07 258.3 260.25 258.39 259.89 258.75C260.25 258.75 260.25 258.84 259.89 259.02C260.25 259.2 260.34 259.38 260.16 259.56C260.16 259.92 260.34 260.01 260.7 259.83C260.34 260.19 260.16 260.37 260.16 260.37C260.16 260.55 260.25 260.64 260.43 260.64C260.61 260.64 260.7 260.64 260.7 260.64C260.88 260.82 260.88 261 260.7 261.18C260.7 261.54 260.79 261.63 260.97 261.45C261.15 261.27 261.42 261.18 261.78 261.18C261.78 261.18 261.78 261.54 261.78 262.26C262.14 261.72 262.32 261.54 262.32 261.72C262.32 261.9 262.59 261.81 263.13 261.45C263.13 260.91 262.95 260.64 262.59 260.64C262.23 260.64 261.87 260.55 261.51 260.37C261.87 260.01 262.05 259.74 262.05 259.56C262.23 259.56 262.41 259.38 262.59 259.02C262.23 259.38 261.96 259.47 261.78 259.29C261.78 259.29 261.6 259.38 261.24 259.56L262.05 258.75C261.33 258.57 260.88 258.21 260.7 257.67C260.34 257.31 260.07 257.04 259.89 256.86C259.71 256.68 259.44 256.5 259.08 256.32C258.72 256.14 258.63 255.87 258.81 255.51C259.17 255.33 259.17 255.15 258.81 254.97C259.35 254.79 259.62 254.52 259.62 254.16C259.44 254.34 259.17 254.43 258.81 254.43C259.17 254.07 259.08 253.8 258.54 253.62C258.18 253.62 258 253.71 258 253.89C258 254.07 258.09 254.16 258.27 254.16C258.45 254.16 258.36 254.25 258 254.43C257.82 254.25 257.73 254.07 257.73 253.89C257.73 253.89 257.64 253.8 257.46 253.62C257.82 253.62 258 253.53 258 253.35C258 253.35 258.18 253.26 258.54 253.08C258.54 252.72 258.81 252.54 259.35 252.54C259.17 252.18 258.81 252.18 258.27 252.54C257.73 252.9 257.37 252.99 257.19 252.81C257.73 252.45 258.09 252.27 258.27 252.27C258.63 252.27 258.81 252.09 258.81 251.73C258.45 251.91 258.27 251.91 258.27 251.73C258.27 251.55 258.18 251.46 258 251.46C257.46 252 257.19 252.09 257.19 251.73C257.19 251.37 257.01 251.1 256.65 250.92C256.29 250.74 256.29 250.38 256.65 249.84ZM259.62 255.51C259.44 255.51 259.35 255.51 259.35 255.51H259.62ZM260.97 264.96C260.97 264.78 260.88 264.69 260.7 264.69C260.7 264.69 260.7 264.78 260.7 264.96H260.97ZM257.73 260.1C257.91 260.28 258.09 260.37 258.27 260.37C258.63 260.37 258.81 260.19 258.81 259.83V259.56C258.45 259.92 258.27 260.01 258.27 259.83C258.27 259.83 258.09 259.92 257.73 260.1ZM256.92 258.75H257.46C257.46 258.75 257.28 258.75 256.92 258.75ZM256.11 258.48H256.38C256.38 258.48 256.47 258.48 256.65 258.48C256.65 258.48 256.47 258.48 256.11 258.48ZM256.11 249.03C255.75 248.85 255.57 248.76 255.57 248.76C255.57 248.76 255.75 248.85 256.11 249.03ZM255.3 246.33C254.94 246.33 254.4 246.15 253.68 245.79C254.04 245.61 254.22 245.61 254.22 245.79C254.22 245.79 254.31 245.7 254.49 245.52C253.95 245.34 253.77 244.89 253.95 244.17C253.59 243.81 253.32 243.63 253.14 243.63C252.96 243.45 253.05 243.09 253.41 242.55C253.05 242.55 252.69 242.37 252.33 242.01H252.87C253.23 241.65 253.32 241.56 253.14 241.74C252.96 241.74 252.78 241.56 252.6 241.2C252.42 241.38 252.24 241.47 252.06 241.47V240.93C252.42 240.75 252.6 240.75 252.6 240.93C252.78 241.11 253.05 241.11 253.41 240.93C253.41 240.93 253.59 240.75 253.95 240.39V240.12C253.95 240.12 254.13 240.03 254.49 239.85C254.67 239.67 254.67 239.58 254.49 239.58C254.31 239.4 254.04 239.49 253.68 239.85V240.12C252.78 240.48 252.51 240.39 252.87 239.85C253.41 239.31 253.32 239.13 252.6 239.31C252.24 239.31 252.24 239.22 252.6 239.04C252.6 238.68 252.33 238.05 251.79 237.15C251.43 237.33 251.25 237.42 251.25 237.42C251.25 237.24 251.16 237.24 250.98 237.42C251.34 237.06 251.34 236.97 250.98 237.15C250.62 237.15 250.35 237.06 250.17 236.88C250.35 236.7 250.44 236.7 250.44 236.88C250.62 236.88 250.8 236.79 250.98 236.61C250.98 236.43 250.8 236.25 250.44 236.07C250.26 235.89 249.99 235.98 249.63 236.34C249.99 236.34 249.99 236.43 249.63 236.61C249.99 237.15 250.17 237.6 250.17 237.96C250.17 238.32 250.44 238.68 250.98 239.04C250.8 239.22 250.62 239.31 250.44 239.31C250.26 239.31 250.17 239.4 250.17 239.58C250.71 239.4 250.98 239.4 250.98 239.58C250.62 239.76 250.62 239.94 250.98 240.12C251.34 240.3 251.34 240.57 250.98 240.93C250.98 241.11 251.07 241.2 251.25 241.2C251.43 241.02 251.52 241.02 251.52 241.2C251.7 241.56 251.61 241.92 251.25 242.28C251.07 242.64 251.16 242.82 251.52 242.82C251.52 242.82 251.79 242.82 252.33 242.82C252.15 243.18 252.06 243.63 252.06 244.17C252.24 243.99 252.51 243.9 252.87 243.9C252.87 244.08 252.69 244.26 252.33 244.44C252.15 244.44 252.15 244.53 252.33 244.71C252.15 244.89 251.97 244.98 251.79 244.98C251.61 244.98 251.52 245.07 251.52 245.25H252.6C252.78 245.43 252.87 245.88 252.87 246.6C253.05 246.6 253.14 246.6 253.14 246.6C253.14 246.42 253.23 246.33 253.41 246.33H253.68C253.5 246.69 253.5 247.05 253.68 247.41C254.04 247.59 254.13 247.86 253.95 248.22C254.31 248.22 254.4 248.49 254.22 249.03C254.22 249.39 254.58 249.39 255.3 249.03C254.94 248.49 254.76 248.13 254.76 247.95C254.76 247.59 254.49 247.23 253.95 246.87C254.67 246.69 255.12 246.51 255.3 246.33ZM253.95 253.08C254.31 253.08 254.49 253.08 254.49 253.08H253.95ZM253.14 250.11C253.14 250.47 253.32 250.47 253.68 250.11H253.14ZM252.06 247.41C251.7 247.41 251.52 247.41 251.52 247.41H252.06ZM250.17 245.25C250.17 245.43 250.26 245.52 250.44 245.52C250.62 245.52 250.71 245.43 250.71 245.25H250.17ZM249.9 243.63C249.9 243.99 250.08 243.99 250.44 243.63H249.9ZM251.25 246.33C251.43 246.15 251.43 246.06 251.25 246.06C251.07 246.06 250.98 246.15 250.98 246.33H251.25ZM246.93 229.59C246.93 229.95 247.02 230.13 247.2 230.13C247.56 229.95 247.74 230.04 247.74 230.4C248.64 230.04 249 229.77 248.82 229.59C248.64 229.41 249 229.14 249.9 228.78C248.64 229.14 248.28 229.14 248.82 228.78C249.36 228.24 249.45 227.88 249.09 227.7C248.91 227.88 248.73 227.88 248.55 227.7H248.28H248.55C248.55 226.8 248.19 226.44 247.47 226.62C247.83 226.44 248.1 226.17 248.28 225.81C248.46 225.45 248.37 225.27 248.01 225.27C247.65 225.27 247.47 225.18 247.47 225C247.47 224.82 247.29 224.82 246.93 225C246.57 225.36 246.66 225.63 247.2 225.81C247.74 225.99 247.56 226.26 246.66 226.62C247.38 227.34 247.65 227.97 247.47 228.51C248.01 228.33 248.01 228.42 247.47 228.78C247.11 228.96 247.02 229.14 247.2 229.32C247.74 229.32 248.01 229.32 248.01 229.32C248.01 229.5 247.65 229.59 246.93 229.59ZM242.88 233.91C243.06 233.73 243.15 233.73 243.15 233.91H242.88ZM244.23 223.65C244.23 223.65 244.14 223.65 243.96 223.65H244.23ZM245.58 231.21C245.58 231.21 245.76 231.21 246.12 231.21C246.12 230.85 245.94 230.76 245.58 230.94V231.21ZM246.12 223.65C246.12 223.65 246.03 223.65 245.85 223.65H246.12ZM245.58 222.84C245.58 223.38 245.94 223.56 246.66 223.38C246.3 222.84 245.94 222.66 245.58 222.84ZM245.31 220.14C245.67 220.5 246.03 220.59 246.39 220.41L246.12 220.14H245.31ZM245.04 219.33C245.22 219.69 245.4 219.78 245.58 219.6C245.58 219.6 245.4 219.51 245.04 219.33ZM245.04 220.68C245.04 221.04 245.22 221.04 245.58 220.68H245.04ZM245.58 228.24C245.22 228.24 245.04 228.24 245.04 228.24C245.04 228.24 245.22 228.24 245.58 228.24ZM245.04 224.19C244.86 224.19 244.77 224.28 244.77 224.46L245.04 224.19ZM246.39 217.44C246.57 217.62 246.66 217.8 246.66 217.98C246.84 217.98 246.93 218.07 246.93 218.25V218.52H247.2H247.47V218.25H247.2V217.98L246.93 217.71C246.93 217.53 246.84 217.44 246.66 217.44C246.66 217.26 246.57 217.17 246.39 217.17L245.85 216.63V216.9C246.21 216.9 246.39 217.08 246.39 217.44ZM248.01 223.11V222.84C247.11 223.02 246.84 223.2 247.2 223.38C247.74 223.56 248.1 223.47 248.28 223.11H248.01ZM248.28 224.19C248.28 224.01 248.19 223.92 248.01 223.92C247.83 224.1 247.83 224.19 248.01 224.19H248.28ZM248.28 224.46C248.46 224.28 248.37 224.19 248.01 224.19C248.01 224.37 248.1 224.46 248.28 224.46ZM248.28 232.29C247.74 232.29 247.47 232.47 247.47 232.83C247.65 232.65 247.74 232.65 247.74 232.83C247.74 232.83 247.83 232.74 248.01 232.56C248.55 233.1 248.64 233.55 248.28 233.91C248.64 233.73 248.82 233.91 248.82 234.45C249 234.81 249.27 234.81 249.63 234.45C249.45 234.09 249.45 233.82 249.63 233.64C249.81 233.28 249.72 232.92 249.36 232.56C249.72 232.2 249.72 232.02 249.36 232.02C249.18 231.84 249.36 231.57 249.9 231.21C249.72 231.39 249.54 231.3 249.36 230.94H248.55C248.91 230.94 249.09 230.94 249.09 230.94C249.27 230.76 249.45 230.67 249.63 230.67C249.63 230.31 249.36 230.22 248.82 230.4C248.82 230.4 248.55 230.4 248.01 230.4C247.65 230.58 247.56 230.76 247.74 230.94C248.1 231.12 248.1 231.3 247.74 231.48C248.1 231.3 248.19 231.39 248.01 231.75C248.01 231.93 248.1 232.11 248.28 232.29ZM248.55 236.88C248.19 236.88 248.01 236.88 248.01 236.88H248.55ZM248.82 234.99C249 235.35 249 235.71 248.82 236.07C248.64 236.25 249 236.16 249.9 235.8C249.9 235.26 249.54 234.99 248.82 234.99ZM241.26 167.49L251.79 168.03C255.75 167.13 259.44 166.14 262.86 165.06C266.28 163.8 268.71 162.81 270.15 162.09C276.45 159.39 281.85 156.42 286.35 153.18C291.03 149.76 294.99 146.52 298.23 143.46C301.83 140.04 305.07 136.53 307.95 132.93C311.37 129.15 314.25 123.93 316.59 117.27C319.11 110.61 320.64 103.86 321.18 97.02C321.9 90 321.45 83.52 319.83 77.58C318.21 71.46 315.15 67.14 310.65 64.62C307.95 63.18 304.71 63.99 300.93 67.05C297.15 69.93 293.01 74.25 288.51 80.01C284.19 85.59 279.78 92.16 275.28 99.72C270.78 107.1 266.55 114.48 262.59 121.86C258.63 129.24 255.03 136.08 251.79 142.38C248.55 148.68 246.12 153.54 244.5 156.96L241.26 167.49ZM242.88 232.56C242.7 232.74 242.7 232.83 242.88 232.83V232.56ZM252.87 250.65V250.92V250.65ZM253.68 253.08L253.95 252.81H253.68V253.08ZM256.92 260.91C256.92 260.73 257.01 260.55 257.19 260.37C257.19 260.55 257.1 260.64 256.92 260.64C256.92 260.64 256.92 260.73 256.92 260.91ZM258.54 262.8V263.07C258.72 263.07 258.9 262.98 259.08 262.8H258.54ZM260.16 265.5H260.43H260.16ZM260.7 267.39C260.88 267.57 260.97 267.75 260.97 267.93C261.15 268.11 261.42 268.2 261.78 268.2C261.96 267.66 261.87 267.21 261.51 266.85C261.33 266.67 261.06 266.4 260.7 266.04V266.58C260.52 266.76 260.43 267.03 260.43 267.39C260.43 267.21 260.52 267.12 260.7 267.12V267.39ZM262.86 270.36C263.04 270.54 263.13 270.72 263.13 270.9L263.67 270.36C263.67 270.18 263.76 269.91 263.94 269.55C264.12 269.37 264.03 269.46 263.67 269.82L262.86 270.36ZM264.48 274.41H264.21H264.48H264.21V274.68H264.48V274.41ZM264.75 274.14L264.21 273.87V274.14V274.41H264.48V274.14H264.75ZM267.72 275.76C267.9 275.76 268.08 275.67 268.26 275.49H268.53C268.35 275.49 268.26 275.58 268.26 275.76C268.44 275.94 268.53 276.12 268.53 276.3C268.53 276.66 268.71 276.66 269.07 276.3C269.07 276.3 269.25 275.94 269.61 275.22C269.43 275.04 269.25 275.04 269.07 275.22C268.89 275.4 268.71 275.49 268.53 275.49C268.71 275.13 268.62 275.13 268.26 275.49C268.08 274.95 267.81 274.5 267.45 274.14C267.09 273.78 266.73 273.51 266.37 273.33C266.37 273.33 266.37 273.24 266.37 273.06V272.79C266.01 272.61 265.65 272.52 265.29 272.52C264.93 272.52 264.93 272.16 265.29 271.44L264.75 271.98C264.93 271.62 265.2 271.26 265.56 270.9C265.38 270.54 265.11 270.45 264.75 270.63C264.39 270.99 264.03 271.26 263.67 271.44L263.94 271.71C264.12 271.71 264.21 271.71 264.21 271.71C264.21 271.89 264.39 271.98 264.75 271.98H264.48C264.48 271.98 264.57 272.07 264.75 272.25C264.75 272.43 264.75 272.52 264.75 272.52C264.93 272.7 265.02 272.88 265.02 273.06H265.29V273.33V273.87C266.19 273.51 266.82 273.51 267.18 273.87H266.91V274.14H266.64V274.41H267.18V274.68C267.36 274.86 267.45 275.04 267.45 275.22C267.63 275.22 267.72 275.31 267.72 275.49C267.72 275.67 267.63 275.76 267.45 275.76H267.72ZM272.31 280.89H272.58V280.62H272.31C271.95 280.44 271.68 280.26 271.5 280.08C271.32 279.9 271.05 279.72 270.69 279.54C271.05 279.54 271.23 279.54 271.23 279.54C271.41 279.72 271.77 279.54 272.31 279C271.95 279 271.86 278.82 272.04 278.46C272.4 278.28 272.49 278.19 272.31 278.19C271.95 279.09 271.77 279.18 271.77 278.46C271.77 277.74 271.5 277.74 270.96 278.46C271.14 278.46 270.96 278.73 270.42 279.27V279.54C270.6 279.54 270.69 279.63 270.69 279.81V280.08C270.69 280.08 270.78 280.17 270.96 280.35H271.5H271.23V280.62C271.59 280.62 271.86 280.71 272.04 280.89H272.31ZM276.36 284.13L276.09 283.86C276.27 283.86 276.36 283.95 276.36 284.13ZM276.09 283.59C275.91 283.23 275.46 282.87 274.74 282.51C274.38 282.15 274.11 281.97 273.93 281.97C274.29 281.79 274.47 281.79 274.47 281.97C274.65 282.15 274.92 282.06 275.28 281.7C275.64 280.8 275.64 280.35 275.28 280.35C275.1 280.53 274.83 280.53 274.47 280.35C274.11 280.71 273.93 280.89 273.93 280.89C274.11 281.07 274.11 281.34 273.93 281.7C273.57 281.34 273.3 281.16 273.12 281.16H272.85H272.58V281.43H272.31V281.7H272.58H273.12L272.85 282.24H273.12C273.3 282.24 273.39 282.33 273.39 282.51C273.93 282.51 274.29 282.6 274.47 282.78H274.74C274.74 282.78 274.83 282.78 275.01 282.78V283.32H275.28V283.59C275.46 283.59 275.55 283.68 275.55 283.86C275.73 283.86 275.82 283.77 275.82 283.59L276.09 283.32V283.59ZM276.9 280.89C277.08 280.89 277.17 280.71 277.17 280.35C277.17 280.35 277.08 280.53 276.9 280.89ZM277.17 281.16L277.71 280.62C277.53 280.8 277.44 280.89 277.44 280.89C277.26 280.89 277.17 280.98 277.17 281.16ZM277.44 281.43C277.44 281.61 277.44 281.61 277.44 281.43C277.62 281.43 277.71 281.34 277.71 281.16L277.44 281.43ZM279.06 279C279.06 279.18 279.06 279.18 279.06 279C279.24 279 279.33 278.91 279.33 278.73C279.33 278.73 279.24 278.82 279.06 279ZM279.87 282.78C279.87 282.78 279.96 282.69 280.14 282.51C280.14 282.33 280.05 282.24 279.87 282.24C279.87 282.42 279.87 282.6 279.87 282.78ZM280.14 285.21C280.5 284.85 280.68 284.31 280.68 283.59C280.14 284.49 279.96 285.03 280.14 285.21ZM281.76 285.75C282.12 285.03 282.12 284.67 281.76 284.67C281.4 284.85 281.13 285.12 280.95 285.48C281.31 285.66 281.49 285.66 281.49 285.48C281.49 285.3 281.58 285.39 281.76 285.75ZM280.95 280.08C281.13 279.72 281.22 279.54 281.22 279.54C281.04 279.9 280.95 280.08 280.95 280.08ZM282.3 285.75C282.3 285.57 282.21 285.48 282.03 285.48C282.03 285.66 282.03 285.84 282.03 286.02L282.3 285.75ZM285 287.37C285 287.19 285 287.1 285 287.1C285.18 287.28 285.27 287.28 285.27 287.1C285.09 287.28 285 287.37 285 287.37ZM284.73 281.43C284.91 281.61 285.09 281.52 285.27 281.16C285.45 280.98 285.63 281.07 285.81 281.43C285.81 281.61 285.81 281.7 285.81 281.7C285.99 281.7 286.08 281.79 286.08 281.97V281.43C286.44 281.43 286.98 281.61 287.7 281.97C288.06 282.33 288.6 282.24 289.32 281.7C288.6 281.34 287.7 280.98 286.62 280.62C285.54 280.26 284.73 279.72 284.19 279C283.47 279 282.57 278.64 281.49 277.92C280.59 277.38 279.6 277.11 278.52 277.11C279.06 276.57 279.06 276.3 278.52 276.3C278.16 276.48 277.98 276.39 277.98 276.03C277.98 275.67 277.71 275.67 277.17 276.03C277.17 275.31 276.81 274.77 276.09 274.41C275.73 274.23 275.37 274.05 275.01 273.87C274.83 273.69 274.56 273.42 274.2 273.06C273.84 273.42 273.66 273.33 273.66 272.79C273.84 272.43 273.57 272.7 272.85 273.6C273.21 273.96 273.57 274.23 273.93 274.41C274.29 274.59 274.65 274.86 275.01 275.22C275.73 275.4 276.36 276.03 276.9 277.11C277.44 277.11 278.25 277.47 279.33 278.19C279.69 278.37 280.14 278.55 280.68 278.73C281.22 278.91 281.76 279 282.3 279C282.48 279.72 282.84 280.08 283.38 280.08C284.1 280.44 284.55 280.8 284.73 281.16C284.55 281.16 284.37 281.07 284.19 280.89C284.19 280.71 284.01 280.8 283.65 281.16C283.65 282.06 284.01 282.15 284.73 281.43ZM287.97 282.78C287.97 282.6 287.88 282.51 287.7 282.51C287.7 282.51 287.7 282.6 287.7 282.78V283.05L287.97 282.78ZM286.62 281.97C286.44 282.15 286.26 282.24 286.08 282.24C286.26 282.06 286.44 281.97 286.62 281.97ZM287.97 288.99C288.33 288.09 288.24 287.73 287.7 287.91C287.34 288.27 287.25 288.09 287.43 287.37C287.07 287.73 286.8 287.73 286.62 287.37C286.44 287.19 286.17 287.37 285.81 287.91C286.17 288.27 286.53 288.45 286.89 288.45C287.25 288.45 287.61 288.63 287.97 288.99ZM289.32 283.05C289.32 282.87 289.23 282.78 289.05 282.78C289.05 282.96 289.05 283.14 289.05 283.32L289.32 283.05ZM290.4 283.32C290.58 282.96 290.58 282.69 290.4 282.51C290.22 282.51 290.22 282.33 290.4 281.97C290.04 282.33 289.77 282.42 289.59 282.24C289.41 282.06 289.14 282.15 288.78 282.51C289.14 282.69 289.32 282.87 289.32 283.05C289.5 283.23 289.68 283.32 289.86 283.32L289.59 283.59C289.59 283.77 289.68 283.77 289.86 283.59C290.04 283.59 290.22 283.5 290.4 283.32ZM291.21 289.8C291.21 289.98 291.21 289.98 291.21 289.8C291.39 289.8 291.48 289.71 291.48 289.53C291.48 289.35 291.39 289.26 291.21 289.26C291.21 289.44 291.21 289.62 291.21 289.8ZM292.56 285.21C292.56 285.39 292.56 285.39 292.56 285.21C292.74 285.21 292.83 285.12 292.83 284.94C292.83 284.76 292.74 284.67 292.56 284.67C292.56 284.85 292.56 285.03 292.56 285.21ZM292.29 283.32C292.29 284.04 292.56 284.4 293.1 284.4C293.82 284.4 294.36 284.49 294.72 284.67V284.4C294.72 284.22 294.36 283.95 293.64 283.59C293.46 283.41 293.01 283.32 292.29 283.32ZM294.45 290.61C294.63 290.25 294.72 290.07 294.72 290.07C294.54 290.43 294.45 290.61 294.45 290.61ZM294.72 290.88C294.9 290.7 294.99 290.61 294.99 290.61C294.81 290.79 294.72 290.88 294.72 290.88ZM296.34 285.21C296.52 284.85 296.52 284.67 296.34 284.67C296.16 284.67 296.25 284.49 296.61 284.13C296.25 284.13 296.07 284.22 296.07 284.4C296.07 284.76 296.07 285.03 296.07 285.21C296.07 285.57 296.16 285.57 296.34 285.21ZM297.15 291.42C297.15 291.42 297.15 291.33 297.15 291.15C297.15 291.33 297.15 291.42 297.15 291.42ZM297.15 284.94C297.15 284.94 297.24 284.85 297.42 284.67H297.15C296.79 285.03 296.61 285.39 296.61 285.75C296.79 286.11 296.97 286.02 297.15 285.48C297.15 285.48 297.15 285.3 297.15 284.94ZM297.96 285.48C297.96 285.12 298.05 284.85 298.23 284.67H297.96C297.78 284.85 297.69 285.12 297.69 285.48H297.96ZM303.63 286.56C303.81 286.74 303.9 286.65 303.9 286.29L303.63 286.56ZM303.63 285.75C303.63 285.93 303.54 285.93 303.36 285.75C303.36 285.75 303.36 285.93 303.36 286.29C303.54 286.29 303.63 286.11 303.63 285.75ZM299.31 287.91C299.85 287.91 300.3 287.64 300.66 287.1C300.48 286.74 300.3 286.65 300.12 286.83C299.94 287.19 299.67 287.55 299.31 287.91ZM302.01 286.02C302.37 286.02 302.55 285.93 302.55 285.75C302.19 285.75 302.01 285.84 302.01 286.02ZM302.82 287.1C302.82 287.46 302.82 287.55 302.82 287.37C303 287.37 303.09 287.28 303.09 287.1H302.82V286.56C302.64 286.56 302.46 286.83 302.28 287.37C302.28 287.55 302.37 287.55 302.55 287.37L302.82 287.1ZM303.36 292.23C303.54 291.87 303.63 291.69 303.63 291.69C303.45 292.05 303.36 292.23 303.36 292.23ZM303.63 288.45C303.63 288.27 303.63 288.18 303.63 288.18C303.81 288.36 303.9 288.27 303.9 287.91C303.72 288.09 303.54 288.09 303.36 287.91C303.18 287.73 303.09 287.82 303.09 288.18C303.27 288.36 303.45 288.45 303.63 288.45ZM303.9 287.64C304.08 287.46 304.17 287.28 304.17 287.1H303.9V287.64Z" fill="white"/>
<defs>
<linearGradient id="paint0_linear_6_5" x1="184" y1="0" x2="184" y2="368" gradientUnits="userSpaceOnUse">
<stop stop-color="#D9D9D9"/>
<stop offset="1" stop-color="#737373"/>
</linearGradient>
<linearGradient id="paint1_linear_6_5" x1="-47.5088" y1="-134.206" x2="380.258" y2="476.482" gradientUnits="userSpaceOnUse">
<stop stop-color="#64D9A8"/>
<stop offset="1" stop-color="#305895"/>
</linearGradient>
</defs>
</svg>
